<svg xmlns="http://www.w3.org/2000/svg" viewBox="0 0 276 333.6" width="442" height="534" role="img" aria-label="Speed setup diagram">
<title>Speed setup</title>
<rect x="83.0" y="8.0" width="30" height="42" rx="3" fill="#7e8b9a" stroke="#5b6672" stroke-width="1"/>
<rect x="83.0" y="9.6" width="30" height="42" rx="3" fill="#7e8b9a" stroke="#5b6672" stroke-width="1"/>
<rect x="83.0" y="11.2" width="30" height="42" rx="3" fill="#7e8b9a" stroke="#5b6672" stroke-width="1"/>
<rect x="83.0" y="12.8" width="30" height="42" rx="3" fill="#7e8b9a" stroke="#5b6672" stroke-width="1"/>
<rect x="83.0" y="14.4" width="30" height="42" rx="3" fill="#7e8b9a" stroke="#5b6672" stroke-width="1"/>
<rect x="83.0" y="16.0" width="30" height="42" rx="3" fill="#7e8b9a" stroke="#5b6672" stroke-width="1"/>
<rect x="83.0" y="17.6" width="30" height="42" rx="3" fill="#7e8b9a" stroke="#5b6672" stroke-width="1"/>
<text x="98.0" y="42.6" text-anchor="middle" font-family="system-ui, sans-serif" font-size="11" fill="#1b2027">15</text>
<rect x="163.0" y="8.0" width="30" height="42" rx="3" fill="#7e8b9a" stroke="#5b6672" stroke-width="1"/>
<rect x="163.0" y="9.6" width="30" height="42" rx="3" fill="#7e8b9a" stroke="#5b6672" stroke-width="1"/>
<rect x="163.0" y="11.2" width="30" height="42" rx="3" fill="#7e8b9a" stroke="#5b6672" stroke-width="1"/>
<rect x="163.0" y="12.8" width="30" height="42" rx="3" fill="#7e8b9a" stroke="#5b6672" stroke-width="1"/>
<rect x="163.0" y="14.4" width="30" height="42" rx="3" fill="#7e8b9a" stroke="#5b6672" stroke-width="1"/>
<rect x="63.0" y="105.6" width="30" height="42" rx="3" fill="#7e8b9a" stroke="#5b6672" stroke-width="1"/>
<rect x="63.0" y="107.2" width="30" height="42" rx="3" fill="#7e8b9a" stroke="#5b6672" stroke-width="1"/>
<rect x="63.0" y="108.8" width="30" height="42" rx="3" fill="#7e8b9a" stroke="#5b6672" stroke-width="1"/>
<rect x="63.0" y="110.4" width="30" height="42" rx="3" fill="#7e8b9a" stroke="#5b6672" stroke-width="1"/>
<rect x="63.0" y="112.0" width="30" height="42" rx="3" fill="#7e8b9a" stroke="#5b6672" stroke-width="1"/>
<rect x="103.0" y="105.6" width="30" height="42" rx="3" fill="#7e8b9a" stroke="#5b6672" stroke-width="1"/>
<rect x="143.0" y="105.6" width="30" height="42" rx="3" fill="#7e8b9a" stroke="#5b6672" stroke-width="1"/>
<rect x="183.0" y="105.6" width="30" height="42" rx="3" fill="#7e8b9a" stroke="#5b6672" stroke-width="1"/>
<rect x="183.0" y="107.2" width="30" height="42" rx="3" fill="#7e8b9a" stroke="#5b6672" stroke-width="1"/>
<rect x="183.0" y="108.8" width="30" height="42" rx="3" fill="#7e8b9a" stroke="#5b6672" stroke-width="1"/>
<rect x="183.0" y="110.4" width="30" height="42" rx="3" fill="#7e8b9a" stroke="#5b6672" stroke-width="1"/>
<rect x="183.0" y="112.0" width="30" height="42" rx="3" fill="#7e8b9a" stroke="#5b6672" stroke-width="1"/>
<rect x="83.0" y="200.0" width="30" height="42" rx="3" fill="#ffffff" stroke="#5b6672" stroke-width="1"/>
<rect x="83.0" y="201.6" width="30" height="42" rx="3" fill="#ffffff" stroke="#5b6672" stroke-width="1"/>
<rect x="83.0" y="203.2" width="30" height="42" rx="3" fill="#ffffff" stroke="#5b6672" stroke-width="1"/>
<rect x="83.0" y="204.8" width="30" height="42" rx="3" fill="#ffffff" stroke="#5b6672" stroke-width="1"/>
<rect x="83.0" y="206.4" width="30" height="42" rx="3" fill="#ffffff" stroke="#5b6672" stroke-width="1"/>
<rect x="163.0" y="200.0" width="30" height="42" rx="3" fill="#7e8b9a" stroke="#5b6672" stroke-width="1"/>
<rect x="163.0" y="201.6" width="30" height="42" rx="3" fill="#7e8b9a" stroke="#5b6672" stroke-width="1"/>
<rect x="163.0" y="203.2" width="30" height="42" rx="3" fill="#7e8b9a" stroke="#5b6672" stroke-width="1"/>
<rect x="163.0" y="204.8" width="30" height="42" rx="3" fill="#7e8b9a" stroke="#5b6672" stroke-width="1"/>
<rect x="163.0" y="206.4" width="30" height="42" rx="3" fill="#7e8b9a" stroke="#5b6672" stroke-width="1"/>
<rect x="163.0" y="208.0" width="30" height="42" rx="3" fill="#7e8b9a" stroke="#5b6672" stroke-width="1"/>
<rect x="163.0" y="209.6" width="30" height="42" rx="3" fill="#7e8b9a" stroke="#5b6672" stroke-width="1"/>
<text x="178.0" y="234.6" text-anchor="middle" font-family="system-ui, sans-serif" font-size="11" fill="#1b2027">15</text>
<text x="98.0" y="67.6" text-anchor="middle" font-family="system-ui, sans-serif" font-size="8" fill="#5b6672">Opponent's</text>
<text x="98.0" y="76.6" text-anchor="middle" font-family="system-ui, sans-serif" font-size="8" fill="#5b6672">draw pile</text>
<text x="178.0" y="67.6" text-anchor="middle" font-family="system-ui, sans-serif" font-size="8" fill="#5b6672">Opponent's</text>
<text x="178.0" y="76.6" text-anchor="middle" font-family="system-ui, sans-serif" font-size="8" fill="#5b6672">hand</text>
<text x="78.0" y="162.0" text-anchor="middle" font-family="system-ui, sans-serif" font-size="8" fill="#5b6672">Side</text>
<text x="78.0" y="171.0" text-anchor="middle" font-family="system-ui, sans-serif" font-size="8" fill="#5b6672">stack</text>
<text x="138.0" y="162.0" text-anchor="middle" font-family="system-ui, sans-serif" font-size="8" fill="#5b6672">Build piles</text>
<text x="198.0" y="162.0" text-anchor="middle" font-family="system-ui, sans-serif" font-size="8" fill="#5b6672">Side</text>
<text x="198.0" y="171.0" text-anchor="middle" font-family="system-ui, sans-serif" font-size="8" fill="#5b6672">stack</text>
<text x="98.0" y="259.6" text-anchor="middle" font-family="system-ui, sans-serif" font-size="8" fill="#5b6672">Your</text>
<text x="98.0" y="268.6" text-anchor="middle" font-family="system-ui, sans-serif" font-size="8" fill="#5b6672">hand</text>
<text x="178.0" y="259.6" text-anchor="middle" font-family="system-ui, sans-serif" font-size="8" fill="#5b6672">Your</text>
<text x="178.0" y="268.6" text-anchor="middle" font-family="system-ui, sans-serif" font-size="8" fill="#5b6672">draw pile</text>
<text x="138.0" y="285.6" text-anchor="middle" font-family="system-ui, sans-serif" font-size="9" fill="#5b6672">The middle is one row of four: side stack, the two</text>
<text x="138.0" y="297.6" text-anchor="middle" font-family="system-ui, sans-serif" font-size="9" fill="#5b6672">single build cards, side stack. The build cards are</text>
<text x="138.0" y="309.6" text-anchor="middle" font-family="system-ui, sans-serif" font-size="9" fill="#5b6672">flipped face up together to start, and each player</text>
<text x="138.0" y="321.6" text-anchor="middle" font-family="system-ui, sans-serif" font-size="9" fill="#5b6672">takes charge of the side stack at one end.</text>
</svg>